<svg version="1.1" xmlns="http://www.w3.org/2000/svg" viewBox="0 0 120 120" width="120" height="120"><!-- svg-source:excalidraw --><metadata></metadata><defs><style class="style-fonts">
      </style></defs><rect x="0" y="0" width="120" height="120" fill="#ffffff"></rect><g stroke-linecap="round" transform="translate(10 10) rotate(0 50 50)"><path d="M0 0 C20.86 0.76, 39.68 0.96, 100 0 M0 0 C27.4 -0.39, 54.17 0.83, 100 0 M100 0 C101.89 23.69, 100.75 45.87, 100 100 M100 0 C99.4 38.3, 98.3 75.61, 100 100 M100 100 C65.24 98.31, 27.07 99.81, 0 100 M100 100 C76.15 98.34, 51.08 99.23, 0 100 M0 100 C0.17 67.91, 0.7 31.65, 0 0 M0 100 C-0.27 65.77, -0.11 30.45, 0 0" stroke="#1e1e1e" stroke-width="2" fill="none"></path></g></svg>